<svg width="180" height="179" viewBox="0 0 180 179" fill="none" xmlns="http://www.w3.org/2000/svg">
<rect x="0.832031" y="0.661865" width="178" height="177" rx="88.5" fill="#07003E"/>
<rect x="0.832031" y="0.661865" width="178" height="177" rx="88.5" stroke="url(#paint0_linear_0_340)"/>
<path d="M53.2295 60.7139C53.2295 59.0499 53.5895 57.5699 54.3095 56.2739C55.0295 54.9619 56.0295 53.9459 57.3095 53.2259C58.6055 52.4899 60.0695 52.1219 61.7015 52.1219C63.7015 52.1219 65.4135 52.6499 66.8375 53.7059C68.2615 54.7619 69.2135 56.2019 69.6935 58.0259H65.1815C64.8455 57.3219 64.3655 56.7859 63.7415 56.4179C63.1335 56.0499 62.4375 55.8659 61.6535 55.8659C60.3895 55.8659 59.3655 56.3059 58.5815 57.1859C57.7975 58.0659 57.4055 59.2419 57.4055 60.7139C57.4055 62.1859 57.7975 63.3619 58.5815 64.2419C59.3655 65.1219 60.3895 65.5619 61.6535 65.5619C62.4375 65.5619 63.1335 65.3779 63.7415 65.0099C64.3655 64.6419 64.8455 64.1059 65.1815 63.4019H69.6935C69.2135 65.2259 68.2615 66.6659 66.8375 67.7219C65.4135 68.7619 63.7015 69.2819 61.7015 69.2819C60.0695 69.2819 58.6055 68.9219 57.3095 68.2019C56.0295 67.4659 55.0295 66.4499 54.3095 65.1539C53.5895 63.8579 53.2295 62.3779 53.2295 60.7139ZM85.8868 55.7699L77.4868 75.5219H73.0708L76.1428 68.7059L70.6947 55.7699H75.2788L78.3748 64.1459L81.4468 55.7699H85.8868ZM91.4748 57.6659C91.8588 57.0419 92.4108 56.5379 93.1308 56.1539C93.8508 55.7699 94.6748 55.5779 95.6028 55.5779C96.7068 55.5779 97.7068 55.8579 98.6028 56.4179C99.4988 56.9779 100.203 57.7779 100.715 58.8179C101.243 59.8579 101.507 61.0659 101.507 62.4419C101.507 63.8179 101.243 65.0339 100.715 66.0899C100.203 67.1299 99.4988 67.9379 98.6028 68.5139C97.7068 69.0739 96.7068 69.3539 95.6028 69.3539C94.6588 69.3539 93.8348 69.1699 93.1308 68.8019C92.4268 68.4179 91.8748 67.9139 91.4748 67.2899V69.1619H87.3708V51.4019H91.4748V57.6659ZM97.3308 62.4419C97.3308 61.4179 97.0428 60.6179 96.4668 60.0419C95.9068 59.4499 95.2108 59.1539 94.3788 59.1539C93.5628 59.1539 92.8668 59.4499 92.2908 60.0419C91.7308 60.6339 91.4508 61.4419 91.4508 62.4659C91.4508 63.4899 91.7308 64.2979 92.2908 64.8899C92.8668 65.4819 93.5628 65.7779 94.3788 65.7779C95.1948 65.7779 95.8908 65.4819 96.4668 64.8899C97.0428 64.2819 97.3308 63.4659 97.3308 62.4419ZM116.284 62.2499C116.284 62.6339 116.26 63.0339 116.212 63.4499H106.924C106.988 64.2819 107.252 64.9219 107.716 65.3699C108.196 65.8019 108.78 66.0179 109.468 66.0179C110.492 66.0179 111.204 65.5859 111.604 64.7219H115.972C115.748 65.6019 115.34 66.3939 114.748 67.0979C114.172 67.8019 113.444 68.3539 112.564 68.7539C111.684 69.1539 110.7 69.3539 109.612 69.3539C108.3 69.3539 107.132 69.0739 106.108 68.5139C105.084 67.9539 104.284 67.1539 103.708 66.1139C103.132 65.0739 102.844 63.8579 102.844 62.4659C102.844 61.0739 103.124 59.8579 103.684 58.8179C104.26 57.7779 105.06 56.9779 106.084 56.4179C107.108 55.8579 108.284 55.5779 109.612 55.5779C110.908 55.5779 112.06 55.8499 113.068 56.3939C114.076 56.9379 114.86 57.7139 115.42 58.7219C115.996 59.7299 116.284 60.9059 116.284 62.2499ZM112.084 61.1699C112.084 60.4659 111.844 59.9059 111.364 59.4899C110.884 59.0739 110.284 58.8659 109.564 58.8659C108.876 58.8659 108.292 59.0659 107.812 59.4659C107.348 59.8659 107.06 60.4339 106.948 61.1699H112.084ZM122.553 58.0019C123.033 57.2659 123.633 56.6899 124.353 56.2739C125.073 55.8419 125.873 55.6259 126.753 55.6259V59.9699H125.625C124.601 59.9699 123.833 60.1939 123.321 60.6419C122.809 61.0739 122.553 61.8419 122.553 62.9459V69.1619H118.449V55.7699H122.553V58.0019ZM44.2832 97.3299C43.0512 97.3299 41.9472 97.1299 40.9712 96.7299C39.9952 96.3299 39.2112 95.7379 38.6192 94.9539C38.0432 94.1699 37.7392 93.2259 37.7072 92.1219H42.0752C42.1392 92.7459 42.3552 93.2259 42.7232 93.5619C43.0912 93.8819 43.5712 94.0419 44.1632 94.0419C44.7712 94.0419 45.2512 93.9059 45.6032 93.6339C45.9552 93.3459 46.1312 92.9539 46.1312 92.4579C46.1312 92.0419 45.9872 91.6979 45.6992 91.4259C45.4272 91.1539 45.0832 90.9299 44.6672 90.7539C44.2672 90.5779 43.6912 90.3779 42.9392 90.1539C41.8512 89.8179 40.9632 89.4819 40.2752 89.1459C39.5872 88.8099 38.9952 88.3139 38.4992 87.6579C38.0032 87.0019 37.7552 86.1459 37.7552 85.0899C37.7552 83.5219 38.3232 82.2979 39.4592 81.4179C40.5952 80.5219 42.0752 80.0739 43.8992 80.0739C45.7552 80.0739 47.2512 80.5219 48.3872 81.4179C49.5232 82.2979 50.1312 83.5299 50.2112 85.1139H45.7712C45.7392 84.5699 45.5392 84.1459 45.1712 83.8419C44.8032 83.5219 44.3312 83.3619 43.7552 83.3619C43.2592 83.3619 42.8592 83.4979 42.5552 83.7699C42.2512 84.0259 42.0992 84.4019 42.0992 84.8979C42.0992 85.4419 42.3552 85.8659 42.8672 86.1699C43.3792 86.4739 44.1792 86.8019 45.2672 87.1539C46.3552 87.5219 47.2352 87.8739 47.9072 88.2099C48.5952 88.5459 49.1872 89.0339 49.6832 89.6739C50.1792 90.3139 50.4272 91.1379 50.4272 92.1459C50.4272 93.1059 50.1792 93.9779 49.6832 94.7619C49.2032 95.5459 48.4992 96.1699 47.5712 96.6339C46.6432 97.0979 45.5472 97.3299 44.2832 97.3299ZM52.1368 90.4419C52.1368 89.0659 52.3928 87.8579 52.9048 86.8179C53.4328 85.7779 54.1448 84.9779 55.0408 84.4179C55.9368 83.8579 56.9368 83.5779 58.0408 83.5779C58.9848 83.5779 59.8088 83.7699 60.5128 84.1539C61.2328 84.5379 61.7848 85.0419 62.1688 85.6659V83.7699H66.2728V97.1619H62.1688V95.2659C61.7688 95.8899 61.2088 96.3939 60.4888 96.7779C59.7848 97.1619 58.9608 97.3539 58.0168 97.3539C56.9288 97.3539 55.9368 97.0739 55.0408 96.5139C54.1448 95.9379 53.4328 95.1299 52.9048 94.0899C52.3928 93.0339 52.1368 91.8179 52.1368 90.4419ZM62.1688 90.4659C62.1688 89.4419 61.8808 88.6339 61.3048 88.0419C60.7448 87.4499 60.0568 87.1539 59.2408 87.1539C58.4248 87.1539 57.7288 87.4499 57.1528 88.0419C56.5928 88.6179 56.3128 89.4179 56.3128 90.4419C56.3128 91.4659 56.5928 92.2819 57.1528 92.8899C57.7288 93.4819 58.4248 93.7779 59.2408 93.7779C60.0568 93.7779 60.7448 93.4819 61.3048 92.8899C61.8808 92.2979 62.1688 91.4899 62.1688 90.4659ZM86.3299 83.6259C87.9939 83.6259 89.3139 84.1299 90.2899 85.1379C91.2819 86.1459 91.7779 87.5459 91.7779 89.3379V97.1619H87.6979V89.8899C87.6979 89.0259 87.4659 88.3619 87.0019 87.8979C86.5539 87.4179 85.9299 87.1779 85.1299 87.1779C84.3299 87.1779 83.6979 87.4179 83.2339 87.8979C82.7859 88.3619 82.5619 89.0259 82.5619 89.8899V97.1619H78.4819V89.8899C78.4819 89.0259 78.2499 88.3619 77.7859 87.8979C77.3379 87.4179 76.7139 87.1779 75.9139 87.1779C75.1139 87.1779 74.4819 87.4179 74.0179 87.8979C73.5699 88.3619 73.3459 89.0259 73.3459 89.8899V97.1619H69.2419V83.7699H73.3459V85.4499C73.7619 84.8899 74.3059 84.4499 74.9779 84.1299C75.6499 83.7939 76.4099 83.6259 77.2579 83.6259C78.2659 83.6259 79.1619 83.8419 79.9459 84.2739C80.7459 84.7059 81.3699 85.3219 81.8179 86.1219C82.2819 85.3859 82.9139 84.7859 83.7139 84.3219C84.5139 83.8579 85.3859 83.6259 86.3299 83.6259ZM107.872 83.7699V97.1619H103.768V95.3379C103.352 95.9299 102.784 96.4099 102.064 96.7779C101.36 97.1299 100.576 97.3059 99.7122 97.3059C98.6882 97.3059 97.7842 97.0819 97.0002 96.6339C96.2162 96.1699 95.6082 95.5059 95.1762 94.6419C94.7442 93.7779 94.5282 92.7619 94.5282 91.5939V83.7699H98.6082V91.0419C98.6082 91.9379 98.8402 92.6339 99.3042 93.1299C99.7682 93.6259 100.392 93.8739 101.176 93.8739C101.976 93.8739 102.608 93.6259 103.072 93.1299C103.536 92.6339 103.768 91.9379 103.768 91.0419V83.7699H107.872ZM114.924 86.0019C115.404 85.2659 116.004 84.6899 116.724 84.2739C117.444 83.8419 118.244 83.6259 119.124 83.6259V87.9699H117.996C116.972 87.9699 116.204 88.1939 115.692 88.6419C115.18 89.0739 114.924 89.8419 114.924 90.9459V97.1619H110.82V83.7699H114.924V86.0019ZM120.27 90.4419C120.27 89.0659 120.526 87.8579 121.038 86.8179C121.566 85.7779 122.278 84.9779 123.174 84.4179C124.07 83.8579 125.07 83.5779 126.174 83.5779C127.118 83.5779 127.942 83.7699 128.646 84.1539C129.366 84.5379 129.918 85.0419 130.302 85.6659V83.7699H134.406V97.1619H130.302V95.2659C129.902 95.8899 129.342 96.3939 128.622 96.7779C127.918 97.1619 127.094 97.3539 126.15 97.3539C125.062 97.3539 124.07 97.0739 123.174 96.5139C122.278 95.9379 121.566 95.1299 121.038 94.0899C120.526 93.0339 120.27 91.8179 120.27 90.4419ZM130.302 90.4659C130.302 89.4419 130.014 88.6339 129.438 88.0419C128.878 87.4499 128.19 87.1539 127.374 87.1539C126.558 87.1539 125.862 87.4499 125.286 88.0419C124.726 88.6179 124.446 89.4179 124.446 90.4419C124.446 91.4659 124.726 92.2819 125.286 92.8899C125.862 93.4819 126.558 93.7779 127.374 93.7779C128.19 93.7779 128.878 93.4819 129.438 92.8899C130.014 92.2979 130.302 91.4899 130.302 90.4659ZM139.439 82.3779C138.719 82.3779 138.127 82.1699 137.663 81.7539C137.215 81.3219 136.991 80.7939 136.991 80.1699C136.991 79.5299 137.215 79.0019 137.663 78.5859C138.127 78.1539 138.719 77.9379 139.439 77.9379C140.143 77.9379 140.719 78.1539 141.167 78.5859C141.631 79.0019 141.863 79.5299 141.863 80.1699C141.863 80.7939 141.631 81.3219 141.167 81.7539C140.719 82.1699 140.143 82.3779 139.439 82.3779ZM141.479 83.7699V97.1619H137.375V83.7699H141.479ZM78.785 114.65L78.113 117.794H80.993V121.49H77.321L76.529 125.162H72.689L73.481 121.49H69.497L68.705 125.162H64.865L65.657 121.49H62.105V117.794H66.449L67.121 114.65H63.641V110.954H67.889L68.657 107.402H72.497L71.729 110.954H75.713L76.481 107.402H80.321L79.553 110.954H82.529V114.65H78.785ZM74.945 114.65H70.961L70.289 117.794H74.273L74.945 114.65ZM83.9761 111.458V107.642H90.6241V125.162H86.3521V111.458H83.9761ZM104.616 110.714L98.5916 125.162H94.3916L100.488 111.17H93.0236V107.666H104.616V110.714ZM117.459 110.714L111.435 125.162H107.235L113.331 111.17H105.867V107.666H117.459V110.714Z" fill="white"/>
<defs>
<linearGradient id="paint0_linear_0_340" x1="-55.1282" y1="1.1619" x2="284.893" y2="85.414" gradientUnits="userSpaceOnUse">
<stop stop-color="#DF1CFF"/>
<stop offset="1" stop-color="#EA0070"/>
</linearGradient>
</defs>
</svg>
