<svg width="643" height="861" viewBox="0 0 643 861" fill="none" xmlns="http://www.w3.org/2000/svg">
<mask id="path-1-inside-1_0_34" fill="white">
<path fill-rule="evenodd" clip-rule="evenodd" d="M489.162 591.324C469.076 571.238 438.077 568.124 411.717 578.709C303.675 622.096 175.474 600.024 87.9428 512.493C-29.1024 395.448 -29.1024 205.68 87.9428 88.635C204.988 -28.4103 394.756 -28.4103 511.801 88.635C599.332 176.166 621.404 304.368 578.017 412.411C567.431 438.77 570.545 469.77 590.631 489.855C607.881 507.105 633.599 511.586 657.752 508.159C710.987 500.608 767.001 517.306 807.948 558.253C877.091 627.396 877.091 739.498 807.948 808.641C738.805 877.784 626.702 877.784 557.56 808.641C516.613 767.694 499.915 711.68 507.466 658.445C510.892 634.292 506.412 608.574 489.162 591.324Z"/>
</mask>
<path fill-rule="evenodd" clip-rule="evenodd" d="M489.162 591.324C469.076 571.238 438.077 568.124 411.717 578.709C303.675 622.096 175.474 600.024 87.9428 512.493C-29.1024 395.448 -29.1024 205.68 87.9428 88.635C204.988 -28.4103 394.756 -28.4103 511.801 88.635C599.332 176.166 621.404 304.368 578.017 412.411C567.431 438.77 570.545 469.77 590.631 489.855C607.881 507.105 633.599 511.586 657.752 508.159C710.987 500.608 767.001 517.306 807.948 558.253C877.091 627.396 877.091 739.498 807.948 808.641C738.805 877.784 626.702 877.784 557.56 808.641C516.613 767.694 499.915 711.68 507.466 658.445C510.892 634.292 506.412 608.574 489.162 591.324Z" fill="url(#paint0_linear_0_34)"/>
<path d="M657.752 508.159L658.173 511.13L657.752 508.159ZM578.017 412.411L580.801 413.529L578.017 412.411ZM411.717 578.709L410.599 575.925L411.717 578.709ZM85.8215 514.615C174.232 603.025 303.718 625.312 412.835 581.493L410.599 575.925C303.633 618.88 176.715 597.023 90.0641 510.372L85.8215 514.615ZM85.8215 86.5136C-32.3953 204.73 -32.3953 396.398 85.8215 514.615L90.0641 510.372C-25.8095 394.498 -25.8095 206.63 90.0641 90.7563L85.8215 86.5136ZM513.922 86.5136C395.706 -31.7032 204.038 -31.7032 85.8215 86.5136L90.0641 90.7563C205.938 -25.1174 393.806 -25.1174 509.68 90.7563L513.922 86.5136ZM580.801 413.529C624.62 304.411 602.333 174.924 513.922 86.5136L509.68 90.7563C596.331 177.408 618.188 304.326 575.233 411.293L580.801 413.529ZM810.069 556.132C768.427 514.489 711.459 497.511 657.331 505.189L658.173 511.13C710.515 503.705 765.575 520.122 805.827 560.374L810.069 556.132ZM810.069 810.762C880.384 740.448 880.384 626.446 810.069 556.132L805.827 560.374C873.798 628.345 873.798 738.549 805.827 806.52L810.069 810.762ZM555.438 810.762C625.753 881.077 739.755 881.077 810.069 810.762L805.827 806.52C737.855 874.491 627.652 874.491 559.681 806.52L555.438 810.762ZM504.496 658.024C496.818 712.153 513.796 769.12 555.438 810.762L559.681 806.52C519.429 766.268 503.012 711.208 510.437 658.866L504.496 658.024ZM588.51 491.977C606.663 510.13 633.476 514.633 658.173 511.13L657.331 505.189C633.721 508.538 609.099 504.08 592.753 487.734L588.51 491.977ZM510.437 658.866C513.94 634.17 509.437 607.356 491.284 589.203L487.041 593.445C503.387 609.792 507.845 634.414 504.496 658.024L510.437 658.866ZM575.233 411.293C564.307 438.5 567.387 470.854 588.51 491.977L592.753 487.734C573.703 468.685 570.555 439.041 580.801 413.529L575.233 411.293ZM412.835 581.493C438.348 571.248 467.992 574.396 487.041 593.445L491.284 589.203C470.161 568.08 437.806 565 410.599 575.925L412.835 581.493Z" fill="url(#paint1_linear_0_34)" mask="url(#path-1-inside-1_0_34)"/>
<defs>
<linearGradient id="paint0_linear_0_34" x1="146.861" y1="65.7427" x2="701.285" y2="1061.36" gradientUnits="userSpaceOnUse">
<stop stop-color="#462FFF" stop-opacity="0.08"/>
<stop offset="1" stop-color="#4730FF" stop-opacity="0"/>
</linearGradient>
<linearGradient id="paint1_linear_0_34" x1="127.767" y1="114.177" x2="489.729" y2="939.627" gradientUnits="userSpaceOnUse">
<stop stop-color="#4484FF"/>
<stop offset="1" stop-opacity="0"/>
</linearGradient>
</defs>
</svg>
